<svg xmlns="http://www.w3.org/2000/svg" width="431.7469678923243" height="64.8" viewBox="0 0 431.7469678923243 64.8" class="css-1j8o68f">
	<defs id="SvgjsDefs2394">
	</defs>
	<g id="SvgjsG2395" featurekey="nameLeftFeature-0" transform="matrix(1.076554822516794,0,0,1.076554822516794,-3.486285857890918,7.894738274057428)" fill="#0e7490">
		<path d="M24.64 10.760000000000002 l11.24 27.72 c0.16 0.36 0.2 0.72 0.12 0.96 c-0.08 0.2 -0.24 0.6 -0.88 0.6 l-4.28 0 c-0.56 0 -0.96 -0.32 -1.16 -0.88 l-9.92 -24.76 l-0.04 -0.08 l-0.16 0 s-0.04 0.04 -0.08 0.12 l-5.12 12.96 l4.96 0 c0.52 0 0.96 0.32 1.16 0.8 l1.44 3.56 c0.12 0.4 0.08 0.84 -0.16 1.16 c-0.2 0.36 -0.6 0.56 -1.04 0.56 l-8.76 0 l-2.28 5.72 c-0.2 0.52 -0.6 0.84 -1.12 0.84 l-4.4 0 c-0.64 0 -0.84 -0.36 -0.88 -0.6 c-0.08 -0.24 -0.04 -0.6 0.08 -0.96 l11.16 -27.72 c0.56 -1.44 1.16 -2.4 1.76 -2.92 c0.16 -0.12 0.36 -0.28 0.6 -0.4 c0.8 -0.56 1.76 -0.84 2.76 -0.84 c2.2 0 4.12 1.48 4.76 3.56 z M68.689 34.08 c0.36 0 1.12 0.16 1.12 1.4 l0 3.16 c0 1.24 -0.76 1.4 -1.12 1.4 l-13.2 0 c-1.76 0 -3.28 -0.24 -4.48 -0.68 c-1.28 -0.44 -2.32 -1.2 -3.12 -2.24 c-0.8 -1 -1.36 -2.32 -1.72 -3.92 c-0.36 -1.56 -0.56 -3.48 -0.56 -5.72 l0 -19.04 c0 -1.28 0.8 -1.4 1.16 -1.4 l3.68 0 c0.32 0 1.12 0.12 1.12 1.4 l0 19.72 c0 1.2 0.04 2.2 0.2 3 c0.12 0.72 0.36 1.32 0.68 1.76 c0.28 0.44 0.68 0.72 1.16 0.88 c0.56 0.2 1.24 0.28 2.08 0.28 l13 0 z M84.138 7.039999999999999 c0.32 0 1.12 0.16 1.12 1.4 l0 30.2 c0 1.24 -0.8 1.4 -1.12 1.4 l-3.68 0 c-0.32 0 -1.12 -0.16 -1.12 -1.4 l0 -30.2 c0 -1.24 0.8 -1.4 1.12 -1.4 l3.68 0 z">
		</path>
	</g>
	<!-- monkey -->
	<g id="SvgjsG2396" featurekey="inlineSymbolFeature-0" transform="matrix(0.9061626887348697,0,0,0.9061626887348697,106.66836049102939,-12.907967649215518)" fill="#4c1d95">
		<g xmlns="http://www.w3.org/2000/svg">
			<path fill="none" d="M18.229,41.867c0.58-0.289,1.142-1.4,0.747-1.541C17.482,39.794,17.803,42.079,18.229,41.867z">
			</path>
			<path fill="#134e4a" d="M98.52,34.364c0.174-2.323-1.835-6.938-9.784-9.646c-4.125-1.405-6.629,2.236-7.854,2.342   c-3.307,0.291-21.566-12.817-40.926-11.18c-2.199,0.186-11.382-2.226-21.464-1.498C8.947,15.072,2.356,24.25,1.78,28.438   c-2.908,21.144,15.458,20.8,19.844,17.502c5.396-4.061,1.762-9.361-0.41-9.962c-5.392-1.493-8.087,3.69-4.977,6.636   c-1.792-0.413-6.383-1.426-7.773-6.527c-1.241-4.548,2.949-11.34,7.441-12.816c4.823-1.585,10.322,0.892,12.609,1.446   c-2.067,3.721,1.516,14.194,1.792,16.124c0.275,1.93-0.138,1.791-0.138,2.618s2.136,7.373,1.86,9.579   c-0.276,2.204-1.961,3-2.788,4.103s0.445,2.994,1.204,3.683c-0.138,2.825-1.761,8.512-1.178,9.581   c0.764,1.401,2.682,4.687,3.175,6.61c0.689,2.688,4.548,9.648,5.237,7.443c0.827,1.446,1.792,1.791,1.86,0.481   c1.309,1.585,1.93,0.815,0.964-2.342c0.689,0.551,1.241,0.688,1.241-0.69c0-1.356-1.588-3.479-1.447-4.96   c0.138-1.448,5.788-1.103,5.995-2.067c0.147-0.686-0.827-0.486-2.143-0.794c-0.967-0.227-2.405,0.381-3.783-0.31   c-1.603-0.801-3.239-0.344-4.204-1.377c-0.926-0.992,0.139-3.721,1.034-4.823c0.744-0.095,1.183,0.443,1.653,0.964   c0.689,0.765,1.561,3.061,1.929,2.963c0.318-0.084,0.159-1.146-0.068-2.215c-0.218-1.025,1.122-0.495,2.273,0.493   c1.447,1.239,1.654,1.997,1.517,2.824c-0.139,0.827,0.826,0.689,0.826-0.068c0-0.759,0.078,0.95,0.768,0.674   c0.688-0.275,0.128-1.087-0.423-2.258c-0.589-1.254-0.471-2.033-0.896-2.413c-1.309-1.171-1.791-2.617-2.618-3.582   c-0.827-0.966-1.17-0.758-3.376-2.137c0.561-2.538,1.554-5.826,2.273-6.132c2.274-0.966,10.386-9.206,11.146-10.786   c1.036-2.159,1.119-3.133,1.119-5.2c1.172,2.205,1.792,2.756,2.55,3.238c-1.378,0.964-2.57,1.993-2.55,2.963   c0.069,3.326-2.167,9.085-2.787,11.152c-0.621,2.067,2.319,8.87,2.926,9.657c0.343,0.444,0.551,2.983,1.171,4.361   c0.576,1.283-1.76,3.979-1.171,5.009c0.275,0.483,1.378-0.826,2.205-2.343c0.826-1.515-2.022,4.948-0.896,4.41   c1.585-0.758,1.397,0.352,1.998,0.276c0.388-0.049,0.344-0.174,0.841-0.943c0.299,0.323,0.748,0.115,1.462-0.377   c0.324-0.225,1.36-1.832,1.222-2.796c-0.137-0.965,0.242-1.385,0.821-3.216c0.206-0.65-0.258-1.738-0.671-3.529   c-0.414-1.791,1.7-13.875,3.078-15.46c1.144-1.315,9.646-1.86,11.714-3.79c0.895,1.377,1.309,4.41,1.722,6.476   c0.414,2.068,6.271,11.162,6.959,12.403c0.688,1.24,3.845,2.147,5.237,2.963c0.876,0.512,0.896,1.998,2.756,2.894   c1.495,0.72,2.618,3.859,3.308,3.307c0.688-0.551,0.413,0.966,0.964,1.241c0.552,0.274,0.994-0.758,1.654-1.517   c0.357-0.412,0.343-1.333,0.48-2.574c0.138-1.24-0.073-3.176-1.037-4.83c-0.965-1.653-2.319-0.635-4.386-1.6   c-2.068-0.965-7.306-16.266-7.874-17.73c-0.255-0.659,1.244-4.253,1.24-5.306c1.034,0.482,3.445,1.033,6.408,1.103   c1.973,0.046,4.709-3.08,4.938-4.808c0.183-1.39-1.515-2.536-1.339-3.311C96.515,36.92,98.315,37.107,98.52,34.364z M18.977,40.326   c0.395,0.141-0.167,1.252-0.747,1.541C17.803,42.079,17.482,39.794,18.977,40.326z M97.305,41.269   c-0.105,0.127-0.252,1.088-0.299,0.906c-0.282-1.09-1.748-0.745-1.694-0.225c0.121,1.171,1.372,0.969,1.291,1.09   c-0.431,0.649-1.35,1.942-2.784,2.422c-0.86,0.288-3.89-0.032-4.819-0.135c-0.57-0.063-2.784-0.251-3.04-0.938   c-0.159-0.428,2.403-0.921,4.147-2.103c1.01-0.684,2.017-2.045,2.757-2.244c0.165-0.045,2.287-0.232,2.448-1.362   c0.063-0.445,0.888-1.05,0.752,0C96.007,39.11,97.718,40.776,97.305,41.269z M93.816,38.185c-0.941,0.472-1.283,1.236-1.465,1.46   c-0.833,1.024-2.842,2.813-6.551,3.982c-1.48,0.467-3.421-0.318-4.951-0.062c-0.756,0.126-3.122,2.007-4.775,4.349   c-1.654,2.343-10.49,3.125-13.798,4.365c-3.307,1.24,0.12,15.185-5.846,14.874c-2.947-0.153-6.058-7.015-5.215-9.039   c3.882-9.33,1.979-11.476,4.056-12.98c4.517-3.272,8.063-5.835,5.676-5.352c-8.042,1.628-13.911-3.041-17.969-8.161   c-0.685-0.863-1.923-1.667-1.509,1.811c0.184,1.548,2.342,15.615,2.089,16.448c-1.392,4.575-3.755,5.508-7.376,17.31   c-0.667,2.175-5.489,3.864-6.058,3.478c-1.244-0.847,3.998-18.232,2.839-22.58c-2.2-8.251-5.153-19.052-3.621-22.681   c0.491-1.163,2.43-7.077,10.61-8.544c14.602-2.618,39,11.162,40.239,11.575c1.241,0.414,2.82-3.079,7.028-3.169   c2.707-0.058,11.311,4.567,10.473,9.646C97.356,36.96,96.298,36.945,93.816,38.185z">
			</path>
			<path fill="#134e4a" d="M78.559,34.468c-0.536,2.414,3.494,4.448,5.097,3.487c-5.9-2.951,1.206-5.142,2.146-7.288   C83.923,30.319,79.096,32.054,78.559,34.468z">
			</path>
		</g>
	</g>
	<!-- end monkey -->
	<g id="SvgjsG2397" featurekey="nameRightFeature-0" transform="matrix(1.076554822516794,0,0,1.076554822516794,187.052519496419,7.894738274057428)" fill="#0e7490">
		<path d="M54.569 17.24 c0 2.48 -0.64 4.44 -2 5.8 c1.44 1.32 2.2 3.32 2.2 5.96 l0 2.68 c0 1.24 -0.12 2.4 -0.32 3.4 c-0.24 1.04 -0.56 1.92 -1.08 2.64 c-0.48 0.76 -1.16 1.32 -2 1.72 c-0.8 0.4 -1.8 0.6 -3 0.6 l-18 0 c-1.24 0 -2.4 -0.64 -3.04 -1.72 c-0.2 -0.36 -0.36 -0.8 -0.44 -1.24 l0.04 -27.32 c0.08 -0.32 0.24 -0.68 0.4 -1 c0.6 -0.96 1.6 -1.6 2.76 -1.68 l0 -0.04 l17.68 0 c2.44 0 4.2 0.68 5.24 2.04 c1.04 1.32 1.56 3.32 1.56 5.92 l0 2.24 z M32.769 33.88 c0 0.16 0.04 0.2 0.04 0.2 l13.92 0 c0.8 0 1.36 -0.16 1.68 -0.52 s0.48 -1 0.48 -1.92 l0 -2.72 c0 -0.88 -0.2 -1.52 -0.52 -1.92 c-0.36 -0.4 -1.04 -0.64 -2.08 -0.64 l-7.76 0 c-0.72 0 -1.32 -0.56 -1.32 -1.32 l0 -3.28 c0 -0.72 0.6 -1.32 1.32 -1.32 l7.76 0 c1.04 0 1.72 -0.2 2.04 -0.56 c0.36 -0.4 0.52 -1 0.52 -1.76 l0 -2.76 c0 -0.84 -0.16 -1.48 -0.48 -1.84 s-0.88 -0.56 -1.64 -0.56 l-13.88 0 c-0.04 0 -0.08 0.08 -0.08 0.24 l0 20.68 z M85.738 10.760000000000002 l11.24 27.72 c0.16 0.36 0.2 0.72 0.12 0.96 c-0.08 0.2 -0.24 0.6 -0.88 0.6 l-4.28 0 c-0.56 0 -0.96 -0.32 -1.16 -0.88 l-9.92 -24.76 l-0.04 -0.08 l-0.16 0 s-0.04 0.04 -0.08 0.12 l-5.12 12.96 l4.96 0 c0.52 0 0.96 0.32 1.16 0.8 l1.44 3.56 c0.12 0.4 0.08 0.84 -0.16 1.16 c-0.2 0.36 -0.6 0.56 -1.04 0.56 l-8.76 0 l-2.28 5.72 c-0.2 0.52 -0.6 0.84 -1.12 0.84 l-4.4 0 c-0.64 0 -0.84 -0.36 -0.88 -0.6 c-0.08 -0.24 -0.04 -0.6 0.08 -0.96 l11.16 -27.72 c0.56 -1.44 1.16 -2.4 1.76 -2.92 c0.16 -0.12 0.36 -0.28 0.6 -0.4 c0.8 -0.56 1.76 -0.84 2.76 -0.84 c2.2 0 4.12 1.48 4.76 3.56 z M134.387 17.24 c0 2.48 -0.64 4.44 -2 5.8 c1.44 1.32 2.2 3.32 2.2 5.96 l0 2.68 c0 1.24 -0.12 2.4 -0.32 3.4 c-0.24 1.04 -0.56 1.92 -1.08 2.64 c-0.48 0.76 -1.16 1.32 -2 1.72 c-0.8 0.4 -1.8 0.6 -3 0.6 l-18 0 c-1.24 0 -2.4 -0.64 -3.04 -1.72 c-0.2 -0.36 -0.36 -0.8 -0.44 -1.24 l0.04 -27.32 c0.08 -0.32 0.24 -0.68 0.4 -1 c0.6 -0.96 1.6 -1.6 2.76 -1.68 l0 -0.04 l17.68 0 c2.44 0 4.2 0.68 5.24 2.04 c1.04 1.32 1.56 3.32 1.56 5.92 l0 2.24 z M112.587 33.88 c0 0.16 0.04 0.2 0.04 0.2 l13.92 0 c0.8 0 1.36 -0.16 1.68 -0.52 s0.48 -1 0.48 -1.92 l0 -2.72 c0 -0.88 -0.2 -1.52 -0.52 -1.92 c-0.36 -0.4 -1.04 -0.64 -2.08 -0.64 l-7.76 0 c-0.72 0 -1.32 -0.56 -1.32 -1.32 l0 -3.28 c0 -0.72 0.6 -1.32 1.32 -1.32 l7.76 0 c1.04 0 1.72 -0.2 2.04 -0.56 c0.36 -0.4 0.52 -1 0.52 -1.76 l0 -2.76 c0 -0.84 -0.16 -1.48 -0.48 -1.84 s-0.88 -0.56 -1.64 -0.56 l-13.88 0 c-0.04 0 -0.08 0.08 -0.08 0.24 l0 20.68 z M171.756 7.039999999999999 c0.36 0 1.12 0.12 1.12 1.36 l0 19.08 c0 2.24 -0.16 4.16 -0.52 5.72 c-0.36 1.6 -0.92 2.92 -1.72 3.92 c-0.8 1.04 -1.84 1.76 -3.12 2.24 c-1.24 0.44 -2.76 0.64 -4.52 0.64 l-9 0 c-1.76 0 -3.28 -0.2 -4.52 -0.64 c-1.24 -0.48 -2.32 -1.2 -3.08 -2.24 c-0.8 -1 -1.4 -2.32 -1.76 -3.92 c-0.36 -1.56 -0.52 -3.48 -0.52 -5.72 l0 -19.08 c0 -1.24 0.8 -1.36 1.16 -1.36 l3.64 0 c0.36 0 1.12 0.12 1.12 1.36 l0 19.72 c0 1.2 0.08 2.24 0.2 3 c0.16 0.76 0.4 1.36 0.68 1.8 c0.32 0.4 0.68 0.68 1.2 0.88 c0.52 0.16 1.24 0.28 2.08 0.28 l8.64 0 c0.84 0 1.56 -0.12 2.08 -0.28 c0.52 -0.2 0.88 -0.48 1.2 -0.88 c0.28 -0.44 0.52 -1.04 0.64 -1.8 s0.2 -1.8 0.2 -3 l0 -19.72 c0 -1.24 0.76 -1.36 1.12 -1.36 l3.68 0 z M187.20499999999998 7.039999999999999 c0.32 0 1.12 0.16 1.12 1.4 l0 30.2 c0 1.24 -0.8 1.4 -1.12 1.4 l-3.68 0 c-0.32 0 -1.12 -0.16 -1.12 -1.4 l0 -30.2 c0 -1.24 0.8 -1.4 1.12 -1.4 l3.68 0 z M226.174 7.039999999999999 c0.32 0 1.12 0.12 1.12 1.4 l0 26.44 c0 1.96 -0.28 3.28 -0.84 4 c-0.56 0.76 -1.44 1.16 -2.6 1.16 l-2.92 0 c-0.56 0 -1 -0.04 -1.36 -0.12 c-0.4 -0.08 -0.76 -0.2 -1.08 -0.44 c-0.32 -0.2 -0.6 -0.48 -0.88 -0.88 c-0.28 -0.36 -0.6 -0.84 -0.92 -1.48 l-12.68 -22.48 c-0.08 -0.12 -0.12 -0.12 -0.12 -0.12 l-0.2 0 l0 24.12 c0 1.24 -0.76 1.4 -1.12 1.4 l-3.56 0 c-0.36 0 -1.16 -0.16 -1.16 -1.4 l0 -26.44 c0 -1.96 0.28 -3.28 0.84 -4.04 c0.56 -0.72 1.44 -1.12 2.6 -1.12 l3 0 c0.52 0 1 0.04 1.4 0.08 c0.44 0.08 0.8 0.24 1.12 0.48 c0.28 0.2 0.56 0.52 0.84 0.92 c0.28 0.36 0.56 0.84 0.88 1.44 l12.64 22.48 c0.04 0.12 0.08 0.12 0.12 0.12 l0.2 0 l0 -24.12 c0 -1.28 0.76 -1.4 1.12 -1.4 l3.56 0 z">
		</path>
	</g>
</svg>
