<svg xmlns="http://www.w3.org/2000/svg" width="108" height="88">
	<path 
	fill="#dc2626" 
	d="M98.52 34.364c.174-2.323-1.835-6.938-9.784-9.646-4.125-1.405-6.629 
	2.236-7.854 2.342-3.307.291-21.566-12.817-40.926-11.18-2.199.186-11.382-2.226-21.464-1.498-9.545.69-16.136 
	9.868-16.712 14.056-2.908 21.144 15.458 20.8 19.844 17.502 5.396-4.061 1.762-9.361-.41-9.962-5.392-1.493-8.087 
	3.69-4.977 6.636-1.792-.413-6.383-1.426-7.773-6.527-1.241-4.548 2.949-11.34 7.441-12.816 4.823-1.585 10.322.892 
	12.609 1.446-2.067 3.721 1.516 14.194 1.792 16.124.275 1.93-.138 1.791-.138 2.618s2.136 7.373 1.86 9.579c-.276 
	2.204-1.961 3-2.788 4.103s.445 2.994 1.204 3.683c-.138 2.825-1.761 8.512-1.178 9.581.764 1.401 2.682 4.687 
	3.175 6.61.689 2.688 4.548 9.648 5.237 7.443.827 1.446 1.792 1.791 1.86.481 1.309 1.585 
	1.93.815.964-2.342.689.551 1.241.688 1.241-.69 0-1.356-1.588-3.479-1.447-4.96.138-1.448 5.788-1.103 
	5.995-2.067.147-.686-.827-.486-2.143-.794-.967-.227-2.405.381-3.783-.31-1.603-.801-3.239-.344-4.204-1.377-.926-.992.139-3.721 1.034-4.823.744-.095 
	1.183.443 1.653.964.689.765 1.561 3.061 1.929 2.963.318-.084.159-1.146-.068-2.215-.218-1.025 
	1.122-.495 2.273.493 1.447 1.239 1.654 1.997 1.517 2.824-.139.827.826.689.826-.068 
	0-.759.078.95.768.674.688-.275.128-1.087-.423-2.258-.589-1.254-.471-2.033-.896-2.413-1.309-1.171-1.791-2.617-2.618-3.582-.827-.966-1.17-.758-3.376-2.137.561-2.538 
	1.554-5.826 2.273-6.132 2.274-.966 10.386-9.206 11.146-10.786 1.036-2.159 1.119-3.133 1.119-5.2 
	1.172 2.205 1.792 2.756 2.55 3.238-1.378.964-2.57 1.993-2.55 2.963.069 3.326-2.167 9.085-2.787 
	11.152-.621 2.067 2.319 8.87 2.926 9.657.343.444.551 2.983 1.171 4.361.576 1.283-1.76 3.979-1.171 
	5.009.275.483 1.378-.826 2.205-2.343.826-1.515-2.022 4.948-.896 4.41 1.585-.758 1.397.352 
	1.998.276.388-.049.344-.174.841-.943.299.323.748.115 1.462-.377.324-.225 1.36-1.832 1.222-2.796-.137-.965.242-1.385.821-3.216.206-.65-.258-1.738-.671-3.529-.414-1.791 
	1.7-13.875 3.078-15.46 1.144-1.315 9.646-1.86 11.714-3.79.895 1.377 1.309 4.41 1.722 6.476.414 
	2.068 6.271 11.162 6.959 12.403.688 1.24 3.845 2.147 5.237 2.963.876.512.896 1.998 2.756 2.894 
	1.495.72 2.618 3.859 3.308 3.307.688-.551.413.966.964 1.241.552.274.994-.758 1.654-1.517.357-.412.343-1.333.48-2.574.138-1.24-.073-3.176-1.037-4.83-.965-1.653-2.319-.635-4.386-1.6-2.068-.965-7.306-16.266-7.874-17.73-.255-.659 
	1.244-4.253 1.24-5.306 1.034.482 3.445 1.033 6.408 1.103 1.973.046 4.709-3.08 
	4.938-4.808.183-1.39-1.515-2.536-1.339-3.311.254-1.106 2.054-.919 
	2.259-3.662zm-79.543 5.962c.395.141-.167 1.252-.747 1.541-.427.212-.748-2.073.747-1.541zm78.328.943c-.105.127-.252 
	1.088-.299.906-.282-1.09-1.748-.745-1.694-.225.121 1.171 1.372.969 1.291 1.09-.431.649-1.35 1.942-2.784 
	2.422-.86.288-3.89-.032-4.819-.135-.57-.063-2.784-.251-3.04-.938-.159-.428 2.403-.921 4.147-2.103 1.01-.684 
	2.017-2.045 2.757-2.244.165-.045 2.287-.232 2.448-1.362.063-.445.888-1.05.752 0-.057.43 1.654 2.096 1.241 
	2.589zm-3.489-3.084c-.941.472-1.283 1.236-1.465 1.46-.833 1.024-2.842 2.813-6.551 
	3.982-1.48.467-3.421-.318-4.951-.062-.756.126-3.122 2.007-4.775 4.349-1.654 2.343-10.49 3.125-13.798 
	4.365-3.307 1.24.12 15.185-5.846 14.874-2.947-.153-6.058-7.015-5.215-9.039 3.882-9.33 1.979-11.476 
	4.056-12.98 4.517-3.272 8.063-5.835 5.676-5.352-8.042 1.628-13.911-3.041-17.969-8.161-.685-.863-1.923-1.667-1.509 
	1.811.184 1.548 2.342 15.615 2.089 16.448-1.392 4.575-3.755 5.508-7.376 17.31-.667 2.175-5.489 3.864-6.058 
	3.478-1.244-.847 3.998-18.232 2.839-22.58-2.2-8.251-5.153-19.052-3.621-22.681.491-1.163 2.43-7.077 10.61-8.544 
	14.602-2.618 39 11.162 40.239 11.575 1.241.414 2.82-3.079 7.028-3.169 2.707-.058 11.311 4.567 10.473 9.646-.336 
	2.045-1.394 2.03-3.876 3.27z"/>
	<path 
	fill="#dc2626" 
	d="M78.559 34.468c-.536 2.414 3.494 4.448 5.097 
	3.487-5.9-2.951 1.206-5.142 2.146-7.288-1.879-.348-6.706 1.387-7.243 3.801z"/>
</svg>